<svg xmlns="http://www.w3.org/2000/svg" viewBox="0 0 512 512" width="512" height="512">
  <defs>
    <linearGradient id="bg" x1="0" y1="0" x2="1" y2="1">
      <stop offset="0" stop-color="#2563eb"/>
      <stop offset="1" stop-color="#1e3a8a"/>
    </linearGradient>
  </defs>
  <rect width="512" height="512" rx="112" fill="url(#bg)"/>
  <g transform="translate(0 0) scale(1)">
    <g transform="translate(256 262) scale(1.06) translate(-256 -262)">
      <ellipse cx="256" cy="426" rx="150" ry="32" fill="#0f172a" opacity="0.28"/>
      <path d="M136 220 L256 290 L256 440 L136 370 Z" fill="#d99a3e"/>
      <path d="M376 220 L256 290 L256 440 L376 370 Z" fill="#b9782a"/>
      <path d="M256 150 L376 220 L256 290 L136 220 Z" fill="#f2be6b"/>
      <path d="M186.4 249.4 L306.4 179.4 L325.6 190.6 L205.6 260.6 Z" fill="#fff3dc" opacity="0.95"/>
      <path d="M186.4 249.4 L205.6 260.6 L205.6 410.6 L186.4 399.4 Z" fill="#fff3dc" opacity="0.8"/>
      <path d="M256 222 C 256 222, 200 150, 200 106 A 56 56 0 1 1 312 106 C 312 150, 256 222, 256 222 Z" fill="#ffffff"/>
      <circle cx="256" cy="106" r="22" fill="#1e40af"/>
    </g>
  </g>
</svg>
